# xmcd
#
# Track frame offsets:
#	150
#	21999
#	34349
#	40970
#	58509
#	73448
#	93040
#	109564
#	133308
#	138447
#	158001
#	170737
#
# Disc length: 2683 seconds
#
# Revision: 1
# Processed by: cddbd v1.5.2PL0 Copyright (c) Steve Scherf et al.
# Submitted via: audiograbber 1.83.01
#
DISCID=ab0a790c
DTITLE=Grave Desecrator - Insult
DYEAR=2010
DGENRE=death metal
TTITLE0=Black Vengeance
TTITLE1=Stared To Hell
TTITLE2=Hellhound Breed
TTITLE3=Insult
TTITLE4=Stained By Blood
TTITLE5=Dangerous Cult
TTITLE6=Serpent Seedline
TTITLE7=Decline of Faith
TTITLE8=Jesus Joint
TTITLE9=Poisoned Purity
TTITLE10=The Satanic Coven
TTITLE11=Baphomet
EXTD=
EXTT0=
EXTT1=
EXTT2=
EXTT3=
EXTT4=
EXTT5=
EXTT6=
EXTT7=
EXTT8=
EXTT9=
EXTT10=
EXTT11=
PLAYORDER=
